<?xml version="1.0"?><svg xmlns="http://www.w3.org/2000/svg"  viewBox="0 0 50 50" width="50px" height="50px">    <path d="M 25 1 L 4 13 L 4 37 L 25 49 L 46 37 L 46 13 L 25 1 z M 25 3.3027344 L 44 14.160156 L 44 35.839844 L 25 46.695312 L 6 35.839844 L 6 14.160156 L 25 3.3027344 z M 25 5.6074219 L 8 15.320312 L 8 34.677734 L 25 44.392578 L 42 34.677734 L 42 15.320312 L 25 5.6074219 z M 24 8.4824219 L 24 15 L 26 15 L 26 8.4824219 L 40 16.480469 L 40 32.511719 L 34.087891 29.142578 L 33.150391 30.783203 L 38.974609 34.103516 L 25 42.087891 L 11.025391 34.103516 L 16.849609 30.783203 L 15.912109 29.142578 L 10 32.511719 L 10 16.482422 L 24 8.4824219 z M 13 18 L 25 39 L 37 18 L 13 18 z M 18.169922 20 L 31.960938 20 L 25.003906 23.853516 L 18.169922 20 z M 17.560547 21.951172 L 24 25.583984 L 24 33.21875 L 17.560547 21.951172 z M 32.380859 22.054688 L 26 33.21875 L 26 25.589844 L 32.380859 22.054688 z"/></svg>